<?xml version="1.0" encoding="UTF-8" standalone="no"?>
<svg
   width="419.56198"
   height="419.56198"
   viewBox="0 0 419.56198 419.56198"
   version="1.1"
   xml:space="preserve"
   style="clip-rule:evenodd;fill-rule:evenodd;stroke-linejoin:round;stroke-miterlimit:2"
   id="svg24"
   sodipodi:docname="squareVector.svg"
   inkscape:version="1.1 (c68e22c387, 2021-05-23)"
   inkscape:export-filename="C:\Users\carlo\OneDrive\Documentos\11avoSemestre\Simulacion Por Computador\Pseudoaleatorios\Cuadrados Medios\square.png"
   inkscape:export-xdpi="59.948235"
   inkscape:export-ydpi="59.948235"
   xmlns:inkscape="http://www.inkscape.org/namespaces/inkscape"
   xmlns:sodipodi="http://sodipodi.sourceforge.net/DTD/sodipodi-0.dtd"
   xmlns="http://www.w3.org/2000/svg"
   xmlns:svg="http://www.w3.org/2000/svg"
   xmlns:rdf="http://www.w3.org/1999/02/22-rdf-syntax-ns#"
   xmlns:cc="http://creativecommons.org/ns#"
   xmlns:dc="http://purl.org/dc/elements/1.1/"><metadata
   id="metadata30"><rdf:RDF><cc:Work
       rdf:about=""><dc:format>image/svg+xml</dc:format><dc:type
         rdf:resource="http://purl.org/dc/dcmitype/StillImage" /></cc:Work></rdf:RDF></metadata><defs
   id="defs28" /><sodipodi:namedview
   pagecolor="#333333"
   bordercolor="#666666"
   borderopacity="1"
   objecttolerance="10"
   gridtolerance="10"
   guidetolerance="10"
   inkscape:pageopacity="0"
   inkscape:pageshadow="2"
   inkscape:window-width="1366"
   inkscape:window-height="705"
   id="namedview26"
   showgrid="false"
   inkscape:zoom="0.70710678"
   inkscape:cx="60.811183"
   inkscape:cy="245.36605"
   inkscape:window-x="-8"
   inkscape:window-y="-8"
   inkscape:window-maximized="1"
   inkscape:current-layer="layer1"
   inkscape:showpageshadow="false"
   inkscape:document-rotation="0"
   inkscape:snap-page="true"
   inkscape:snap-object-midpoints="true"
   inkscape:snap-center="true"
   inkscape:snap-text-baseline="true"
   inkscape:snap-bbox="false"
   inkscape:bbox-paths="true"
   inkscape:bbox-nodes="true"
   inkscape:snap-bbox-edge-midpoints="true"
   inkscape:snap-bbox-midpoints="true"
   inkscape:snap-others="false"
   inkscape:object-paths="true"
   inkscape:snap-intersection-paths="true"
   inkscape:snap-smooth-nodes="true"
   inkscape:snap-midpoints="true"
   inkscape:snap-nodes="false"
   inkscape:snap-global="false"
   inkscape:pagecheckerboard="0"
   fit-margin-top="0"
   fit-margin-left="0"
   fit-margin-right="0"
   fit-margin-bottom="0" />
<g
   inkscape:groupmode="layer"
   id="layer1"
   inkscape:label="Layer 1"
   style="display:inline"
   transform="translate(-381.2934,-28.235537)"><rect
     style="fill:#00d455;stroke:#ffffff;stroke-width:10;stroke-miterlimit:2;stroke-dasharray:none;stroke-opacity:1;fill-opacity:1"
     id="rect844"
     width="412.56198"
     height="412.56198"
     x="384.7934"
     y="31.735537"
     ry="61.487602"
     inkscape:export-filename="C:\Users\carlo\OneDrive\Documentos\11avoSemestre\Simulacion Por Computador\Pseudoaleatorios\Cuadrados Medios\square.png"
     inkscape:export-xdpi="59.948235"
     inkscape:export-ydpi="59.948235" /><g
     id="g6167"
     transform="matrix(1.3806497,0,0,1.4360496,-276.80443,-97.100872)"
     style="fill:#ffffff;fill-opacity:1;stroke:#ffffff;stroke-opacity:1;stroke-width:4.97131827;stroke-miterlimit:2;stroke-dasharray:none"><g
       aria-label="x"
       transform="matrix(0.96816593,0,0,1.0328808,26.680614,-10.728473)"
       id="text3048"
       style="font-size:262.307px;line-height:1;font-family:Calibri;-inkscape-font-specification:Calibri;text-align:center;text-anchor:middle;fill:#ffffff;fill-opacity:1;stroke:#ffffff;stroke-width:4.97131827;stroke-opacity:1;stroke-miterlimit:2;stroke-dasharray:none"><path
         d="m 633.28678,296.02874 q 1.02463,1.79312 1.02463,3.07391 0,1.15272 -1.28079,1.9212 -1.15272,0.76848 -3.71431,1.02463 -2.43351,0.38424 -6.40398,0.38424 -3.84239,0 -6.14782,-0.25616 -2.17735,-0.12808 -3.58623,-0.51231 -1.2808,-0.51232 -2.04927,-1.15272 -0.6404,-0.76848 -1.15272,-1.66504 l -27.66519,-45.72441 -27.53711,45.72441 q -0.51232,0.89656 -1.2808,1.66504 -0.6404,0.6404 -2.04927,1.15272 -1.2808,0.38423 -3.45815,0.51231 -2.17736,0.25616 -5.76358,0.25616 -3.71431,0 -6.14782,-0.38424 -2.30544,-0.25615 -3.45815,-1.02463 -1.02464,-0.76848 -1.02464,-1.9212 0.12808,-1.28079 1.2808,-3.07391 l 35.86228,-56.22694 -33.94109,-54.17767 q -1.02464,-1.79311 -1.15272,-2.94583 0,-1.28079 1.15272,-2.04927 1.2808,-0.89656 3.71431,-1.15272 2.56159,-0.25616 6.66014,-0.25616 3.7143,0 5.89166,0.25616 2.30543,0.12808 3.58623,0.51232 1.28079,0.38424 1.92119,1.02464 0.6404,0.6404 1.15272,1.53695 l 26.25631,42.90667 26.64056,-42.90667 q 0.51232,-0.76847 1.15271,-1.40887 0.6404,-0.6404 1.66504,-1.02464 1.15272,-0.51232 3.07391,-0.6404 2.04927,-0.25616 5.50742,-0.25616 3.71431,0 6.01974,0.25616 2.43352,0.25616 3.58623,1.02464 1.15272,0.6404 1.02464,1.92119 -0.12808,1.2808 -1.2808,3.20199 l -33.68493,53.53727 z"
         id="path6022"
         style="fill:#ffffff;fill-opacity:1;stroke:#ffffff;stroke-opacity:1;stroke-width:4.97131827;stroke-miterlimit:2;stroke-dasharray:none" /></g><g
       aria-label="2"
       transform="matrix(1.1129662,0,0,0.89849989,17.85124,0)"
       id="text5570"
       style="font-size:153.448px;line-height:1;font-family:Calibri;-inkscape-font-specification:Calibri;text-align:center;text-anchor:middle;fill:#ffffff;fill-opacity:1;stroke:#ffffff;stroke-width:4.97131825;stroke-opacity:1;stroke-miterlimit:2;stroke-dasharray:none"><path
         d="m 629.11716,232.28173 q 0,1.34866 -0.22478,2.39762 -0.14985,1.04896 -0.52448,1.79822 -0.2997,0.67433 -0.89911,1.04896 -0.52448,0.2997 -1.19881,0.2997 h -53.57193 q -1.04897,0 -1.87315,-0.22477 -0.74926,-0.29971 -1.34866,-0.89911 -0.52448,-0.59941 -0.82419,-1.7233 -0.22477,-1.12388 -0.22477,-2.77225 0,-1.49852 0.0749,-2.6224 0.14985,-1.12389 0.52448,-1.94807 0.37463,-0.89911 0.89911,-1.7233 0.59941,-0.89911 1.49852,-1.87314 l 18.80637,-19.93026 q 6.51854,-6.89317 10.41468,-12.36275 3.97107,-5.46958 6.06899,-9.96513 2.17285,-4.49555 2.84718,-8.16691 0.67433,-3.67136 0.67433,-6.89317 0,-3.22181 -1.04896,-6.06899 -1.04896,-2.92211 -3.07196,-5.09495 -1.94807,-2.17285 -4.9451,-3.44659 -2.99703,-1.27374 -6.89317,-1.27374 -4.57047,0 -8.24184,1.27374 -3.59643,1.27374 -6.36869,2.77225 -2.69733,1.49852 -4.57047,2.77226 -1.79822,1.27374 -2.69733,1.27374 -0.52448,0 -0.97403,-0.29971 -0.37463,-0.2997 -0.67434,-0.97403 -0.22477,-0.67433 -0.37462,-1.79822 -0.14986,-1.12389 -0.14986,-2.69733 0,-1.12389 0.0749,-1.94807 0.0749,-0.82418 0.22478,-1.42359 0.22477,-0.59941 0.52448,-1.12389 0.2997,-0.52448 1.19881,-1.27373 0.89911,-0.82419 3.07196,-2.17285 2.24777,-1.34867 5.54451,-2.6224 3.37166,-1.34867 7.34272,-2.24778 4.04599,-0.89911 8.46661,-0.89911 7.04303,0 12.28783,2.023 5.31973,1.94807 8.76632,5.39466 3.52151,3.44658 5.2448,8.01705 1.7233,4.57048 1.7233,9.74036 0,4.64539 -0.82419,9.29079 -0.82418,4.57047 -3.52151,9.96513 -2.6224,5.31973 -7.64243,11.9132 -5.02003,6.51854 -13.33679,15.06008 l -15.35978,16.03412 H 626.195 q 0.59941,0 1.12389,0.37463 0.59941,0.2997 0.97403,0.97403 0.44956,0.67434 0.59941,1.7233 0.22478,0.97403 0.22478,2.3227 z"
         id="path6142"
         style="fill:#ffffff;fill-opacity:1;stroke:#ffffff;stroke-opacity:1;stroke-width:4.97131825;stroke-miterlimit:2;stroke-dasharray:none" /></g></g><path
     id="rect14746"
     d="m 410.82767,215.16592 v -38.60388 l 77.70121,77.45449 -77.70121,77.45449 V 292.37369 H 387.6199 v -77.20777 z"
     sodipodi:nodetypes="cccccccc"
     style="fill:#ffffff;fill-opacity:1;stroke-width:4.28932" /><path
     id="rect14746-5"
     d="m 771.32111,215.16592 v -38.60388 l -77.70121,77.45449 77.70121,77.45449 v -39.09733 h 23.20777 v -77.20777 z"
     sodipodi:nodetypes="cccccccc"
     style="clip-rule:evenodd;display:inline;fill:#ffffff;fill-opacity:1;fill-rule:evenodd;stroke-width:4.28932;stroke-linejoin:round;stroke-miterlimit:2" /></g></svg>
